<mxfile host="app.diagrams.net" modified="2021-03-09T01:48:57.546Z" agent="5.0 (Windows)" etag="SPxiTcdI150qXFu5tlYv" version="14.4.4" type="github">
  <diagram id="2aao6s5FrQBSc6j1XHA0" name="第 1 页">
    <mxGraphModel dx="1422" dy="1933" grid="1" gridSize="10" guides="1" tooltips="1" connect="1" arrows="1" fold="1" page="1" pageScale="1" pageWidth="1920" pageHeight="1200" math="0" shadow="0">
      <root>
        <mxCell id="0" />
        <mxCell id="1" parent="0" />
        <mxCell id="gshKzYGQNFyMOPGnbcJn-3" style="edgeStyle=orthogonalEdgeStyle;rounded=0;orthogonalLoop=1;jettySize=auto;html=1;exitX=1;exitY=0.5;exitDx=0;exitDy=0;" edge="1" parent="1" source="gshKzYGQNFyMOPGnbcJn-17" target="gshKzYGQNFyMOPGnbcJn-2">
          <mxGeometry relative="1" as="geometry">
            <mxPoint x="940" y="150" as="sourcePoint" />
          </mxGeometry>
        </mxCell>
        <mxCell id="gshKzYGQNFyMOPGnbcJn-6" style="edgeStyle=orthogonalEdgeStyle;rounded=0;orthogonalLoop=1;jettySize=auto;html=1;entryX=0.5;entryY=0;entryDx=0;entryDy=0;" edge="1" parent="1" source="gshKzYGQNFyMOPGnbcJn-1" target="gshKzYGQNFyMOPGnbcJn-5">
          <mxGeometry relative="1" as="geometry" />
        </mxCell>
        <mxCell id="gshKzYGQNFyMOPGnbcJn-1" value="&lt;div&gt;立案时间是否为空 或者&lt;/div&gt;&lt;div&gt;是否1月1号后立案&lt;br&gt;&lt;/div&gt;" style="rhombus;whiteSpace=wrap;html=1;" vertex="1" parent="1">
          <mxGeometry x="150" y="110" width="150" height="130" as="geometry" />
        </mxCell>
        <mxCell id="gshKzYGQNFyMOPGnbcJn-13" style="edgeStyle=orthogonalEdgeStyle;rounded=0;orthogonalLoop=1;jettySize=auto;html=1;entryX=0;entryY=0.5;entryDx=0;entryDy=0;" edge="1" parent="1" source="gshKzYGQNFyMOPGnbcJn-2" target="gshKzYGQNFyMOPGnbcJn-12">
          <mxGeometry relative="1" as="geometry" />
        </mxCell>
        <mxCell id="gshKzYGQNFyMOPGnbcJn-2" value="直接mark_status | 1" style="rounded=0;whiteSpace=wrap;html=1;" vertex="1" parent="1">
          <mxGeometry x="1090" y="120" width="120" height="60" as="geometry" />
        </mxCell>
        <mxCell id="gshKzYGQNFyMOPGnbcJn-4" value="新案件" style="text;html=1;align=center;verticalAlign=middle;resizable=0;points=[];autosize=1;" vertex="1" parent="1">
          <mxGeometry x="975" y="125" width="50" height="20" as="geometry" />
        </mxCell>
        <mxCell id="gshKzYGQNFyMOPGnbcJn-9" style="edgeStyle=orthogonalEdgeStyle;rounded=0;orthogonalLoop=1;jettySize=auto;html=1;entryX=0.5;entryY=0;entryDx=0;entryDy=0;" edge="1" parent="1" source="gshKzYGQNFyMOPGnbcJn-5" target="gshKzYGQNFyMOPGnbcJn-8">
          <mxGeometry relative="1" as="geometry" />
        </mxCell>
        <mxCell id="gshKzYGQNFyMOPGnbcJn-5" value="冻结计划，得到历史支出金额" style="rounded=0;whiteSpace=wrap;html=1;" vertex="1" parent="1">
          <mxGeometry x="165" y="350" width="120" height="60" as="geometry" />
        </mxCell>
        <mxCell id="gshKzYGQNFyMOPGnbcJn-7" value="旧案件" style="text;html=1;align=center;verticalAlign=middle;resizable=0;points=[];autosize=1;" vertex="1" parent="1">
          <mxGeometry x="235" y="270" width="50" height="20" as="geometry" />
        </mxCell>
        <mxCell id="gshKzYGQNFyMOPGnbcJn-11" style="edgeStyle=orthogonalEdgeStyle;rounded=0;orthogonalLoop=1;jettySize=auto;html=1;" edge="1" parent="1" source="gshKzYGQNFyMOPGnbcJn-8" target="gshKzYGQNFyMOPGnbcJn-10">
          <mxGeometry relative="1" as="geometry" />
        </mxCell>
        <mxCell id="gshKzYGQNFyMOPGnbcJn-8" value="&lt;div&gt;保存历史支出金额，&lt;/div&gt;&lt;div&gt;切换套题，最高互助金，互助标准...置空&lt;/div&gt;" style="rounded=0;whiteSpace=wrap;html=1;" vertex="1" parent="1">
          <mxGeometry x="165" y="480" width="120" height="60" as="geometry" />
        </mxCell>
        <mxCell id="gshKzYGQNFyMOPGnbcJn-15" style="edgeStyle=orthogonalEdgeStyle;rounded=0;orthogonalLoop=1;jettySize=auto;html=1;entryX=0;entryY=0.5;entryDx=0;entryDy=0;" edge="1" parent="1" source="gshKzYGQNFyMOPGnbcJn-10" target="gshKzYGQNFyMOPGnbcJn-14">
          <mxGeometry relative="1" as="geometry" />
        </mxCell>
        <mxCell id="gshKzYGQNFyMOPGnbcJn-10" value="清空答题表，疑点表" style="rounded=0;whiteSpace=wrap;html=1;" vertex="1" parent="1">
          <mxGeometry x="380" y="480" width="120" height="60" as="geometry" />
        </mxCell>
        <mxCell id="gshKzYGQNFyMOPGnbcJn-12" value="结束" style="rounded=1;whiteSpace=wrap;html=1;" vertex="1" parent="1">
          <mxGeometry x="1310" y="120" width="120" height="60" as="geometry" />
        </mxCell>
        <mxCell id="gshKzYGQNFyMOPGnbcJn-14" value="结束" style="rounded=1;whiteSpace=wrap;html=1;" vertex="1" parent="1">
          <mxGeometry x="600" y="480" width="120" height="60" as="geometry" />
        </mxCell>
        <mxCell id="gshKzYGQNFyMOPGnbcJn-20" value="" style="edgeStyle=orthogonalEdgeStyle;rounded=0;orthogonalLoop=1;jettySize=auto;html=1;" edge="1" parent="1" source="gshKzYGQNFyMOPGnbcJn-17" target="gshKzYGQNFyMOPGnbcJn-19">
          <mxGeometry relative="1" as="geometry" />
        </mxCell>
        <mxCell id="gshKzYGQNFyMOPGnbcJn-17" value="1月1号后立案" style="rhombus;whiteSpace=wrap;html=1;" vertex="1" parent="1">
          <mxGeometry x="860" y="110" width="80" height="80" as="geometry" />
        </mxCell>
        <mxCell id="gshKzYGQNFyMOPGnbcJn-22" style="edgeStyle=orthogonalEdgeStyle;rounded=0;orthogonalLoop=1;jettySize=auto;html=1;entryX=0;entryY=0.5;entryDx=0;entryDy=0;" edge="1" parent="1" source="gshKzYGQNFyMOPGnbcJn-19" target="gshKzYGQNFyMOPGnbcJn-21">
          <mxGeometry relative="1" as="geometry" />
        </mxCell>
        <mxCell id="gshKzYGQNFyMOPGnbcJn-19" value="切换套题，冻结计划" style="whiteSpace=wrap;html=1;" vertex="1" parent="1">
          <mxGeometry x="840" y="280" width="120" height="60" as="geometry" />
        </mxCell>
        <mxCell id="gshKzYGQNFyMOPGnbcJn-21" value="结束" style="rounded=1;whiteSpace=wrap;html=1;" vertex="1" parent="1">
          <mxGeometry x="1100" y="280" width="120" height="60" as="geometry" />
        </mxCell>
        <mxCell id="gshKzYGQNFyMOPGnbcJn-25" value="旧案件" style="text;html=1;align=center;verticalAlign=middle;resizable=0;points=[];autosize=1;" vertex="1" parent="1">
          <mxGeometry x="895" y="220" width="50" height="20" as="geometry" />
        </mxCell>
        <mxCell id="gshKzYGQNFyMOPGnbcJn-28" style="edgeStyle=orthogonalEdgeStyle;rounded=0;orthogonalLoop=1;jettySize=auto;html=1;entryX=0;entryY=0.5;entryDx=0;entryDy=0;" edge="1" parent="1" source="gshKzYGQNFyMOPGnbcJn-26" target="gshKzYGQNFyMOPGnbcJn-27">
          <mxGeometry relative="1" as="geometry" />
        </mxCell>
        <mxCell id="gshKzYGQNFyMOPGnbcJn-39" style="edgeStyle=orthogonalEdgeStyle;rounded=0;orthogonalLoop=1;jettySize=auto;html=1;entryX=0.5;entryY=0;entryDx=0;entryDy=0;" edge="1" parent="1" source="gshKzYGQNFyMOPGnbcJn-26" target="gshKzYGQNFyMOPGnbcJn-17">
          <mxGeometry relative="1" as="geometry" />
        </mxCell>
        <mxCell id="gshKzYGQNFyMOPGnbcJn-26" value="立案时间是否为空" style="rhombus;whiteSpace=wrap;html=1;" vertex="1" parent="1">
          <mxGeometry x="860" y="-120" width="80" height="80" as="geometry" />
        </mxCell>
        <mxCell id="gshKzYGQNFyMOPGnbcJn-30" value="" style="edgeStyle=orthogonalEdgeStyle;rounded=0;orthogonalLoop=1;jettySize=auto;html=1;" edge="1" parent="1" source="gshKzYGQNFyMOPGnbcJn-27" target="gshKzYGQNFyMOPGnbcJn-29">
          <mxGeometry relative="1" as="geometry" />
        </mxCell>
        <mxCell id="gshKzYGQNFyMOPGnbcJn-35" value="" style="edgeStyle=orthogonalEdgeStyle;rounded=0;orthogonalLoop=1;jettySize=auto;html=1;" edge="1" parent="1" source="gshKzYGQNFyMOPGnbcJn-27" target="gshKzYGQNFyMOPGnbcJn-34">
          <mxGeometry relative="1" as="geometry" />
        </mxCell>
        <mxCell id="gshKzYGQNFyMOPGnbcJn-27" value="是否旧套题" style="rhombus;whiteSpace=wrap;html=1;" vertex="1" parent="1">
          <mxGeometry x="1025" y="-120" width="80" height="80" as="geometry" />
        </mxCell>
        <mxCell id="gshKzYGQNFyMOPGnbcJn-32" style="edgeStyle=orthogonalEdgeStyle;rounded=0;orthogonalLoop=1;jettySize=auto;html=1;entryX=0;entryY=0.5;entryDx=0;entryDy=0;" edge="1" parent="1" source="gshKzYGQNFyMOPGnbcJn-29" target="gshKzYGQNFyMOPGnbcJn-31">
          <mxGeometry relative="1" as="geometry" />
        </mxCell>
        <mxCell id="gshKzYGQNFyMOPGnbcJn-29" value="切换套题，不冻结计划" style="whiteSpace=wrap;html=1;" vertex="1" parent="1">
          <mxGeometry x="1165" y="-110" width="120" height="60" as="geometry" />
        </mxCell>
        <mxCell id="gshKzYGQNFyMOPGnbcJn-31" value="结束" style="rounded=1;whiteSpace=wrap;html=1;" vertex="1" parent="1">
          <mxGeometry x="1360" y="-110" width="120" height="60" as="geometry" />
        </mxCell>
        <mxCell id="gshKzYGQNFyMOPGnbcJn-33" value="旧套题" style="text;html=1;align=center;verticalAlign=middle;resizable=0;points=[];autosize=1;" vertex="1" parent="1">
          <mxGeometry x="1105" y="-110" width="50" height="20" as="geometry" />
        </mxCell>
        <mxCell id="gshKzYGQNFyMOPGnbcJn-37" style="edgeStyle=orthogonalEdgeStyle;rounded=0;orthogonalLoop=1;jettySize=auto;html=1;" edge="1" parent="1" source="gshKzYGQNFyMOPGnbcJn-34" target="gshKzYGQNFyMOPGnbcJn-31">
          <mxGeometry relative="1" as="geometry" />
        </mxCell>
        <mxCell id="gshKzYGQNFyMOPGnbcJn-34" value="直接mark_status | 1" style="whiteSpace=wrap;html=1;" vertex="1" parent="1">
          <mxGeometry x="1005" y="20" width="120" height="60" as="geometry" />
        </mxCell>
        <mxCell id="gshKzYGQNFyMOPGnbcJn-36" value="新套题" style="text;html=1;align=center;verticalAlign=middle;resizable=0;points=[];autosize=1;" vertex="1" parent="1">
          <mxGeometry x="1070" y="-20" width="50" height="20" as="geometry" />
        </mxCell>
        <mxCell id="gshKzYGQNFyMOPGnbcJn-38" value="空" style="text;html=1;align=center;verticalAlign=middle;resizable=0;points=[];autosize=1;" vertex="1" parent="1">
          <mxGeometry x="985" y="-110" width="30" height="20" as="geometry" />
        </mxCell>
        <mxCell id="gshKzYGQNFyMOPGnbcJn-40" value="不为空" style="text;html=1;align=center;verticalAlign=middle;resizable=0;points=[];autosize=1;" vertex="1" parent="1">
          <mxGeometry x="860" y="20" width="50" height="20" as="geometry" />
        </mxCell>
      </root>
    </mxGraphModel>
  </diagram>
</mxfile>
